<svg width="0" height="0" class="hidden">
  <symbol xmlns="http://www.w3.org/2000/svg" viewBox="0 0 512 512" id="about">
    <circle cx="256" cy="378.5" r="25"></circle>
    <path d="M256 0C114.516 0 0 114.497 0 256c0 141.484 114.497 256 256 256 141.484 0 256-114.497 256-256C512 114.516 397.503 0 256 0zm0 472c-119.377 0-216-96.607-216-216 0-119.377 96.607-216 216-216 119.377 0 216 96.607 216 216 0 119.377-96.607 216-216 216z"></path>
    <path d="M256 128.5c-44.112 0-80 35.888-80 80 0 11.046 8.954 20 20 20s20-8.954 20-20c0-22.056 17.944-40 40-40s40 17.944 40 40-17.944 40-40 40c-11.046 0-20 8.954-20 20v50c0 11.046 8.954 20 20 20s20-8.954 20-20v-32.531c34.466-8.903 60-40.26 60-77.469 0-44.112-35.888-80-80-80z"></path>
  </symbol>
  <symbol xmlns="http://www.w3.org/2000/svg" viewBox="0 0 512 512" id="book">
    <path d="M256 0C153.755 0 70.573 83.182 70.573 185.426c0 126.888 165.939 313.167 173.004 321.035 6.636 7.391 18.222 7.378 24.846 0 7.065-7.868 173.004-194.147 173.004-321.035C441.425 83.182 358.244 0 256 0zm0 278.719c-51.442 0-93.292-41.851-93.292-93.293S204.559 92.134 256 92.134s93.291 41.851 93.291 93.293-41.85 93.292-93.291 93.292z"></path>
  </symbol>
  <symbol xmlns="http://www.w3.org/2000/svg" viewBox="0 0 20 20" id="bookmark">
    <title>bookmark</title>
    <path d="M14 2v17l-4-4-4 4V2c0-.553.585-1.02 1-1h6c.689-.02 1 .447 1 1z"></path>
  </symbol>
  <symbol xmlns="http://www.w3.org/2000/svg" viewBox="0 0 511.874 511.874" id="contact">
    <path d="M490.114 12.813H132.568c-12.012.014-21.746 9.748-21.76 21.76v98.62l-16.35-24.525c-7.484-11.289-22.535-14.676-34.133-7.68l-33.638 20.224a49.355 49.355 0 0 0-22.545 29.244C-8.129 195.137.976 272.116 113.966 385.123c89.855 89.762 156.85 113.937 203.024 113.937 10.69.049 21.339-1.34 31.659-4.13a49.44 49.44 0 0 0 29.252-22.519l20.198-33.673c6.968-11.589 3.584-26.609-7.68-34.091l-80.546-53.692c-11.049-7.308-25.859-4.905-34.031 5.521l-23.45 30.148a8.166 8.166 0 0 1-10.445 2.21l-4.463-2.458c-14.686-8.004-32.964-17.971-69.879-54.886a605.694 605.694 0 0 1-11.008-11.307h333.517c11.982.009 21.713-9.676 21.76-21.658V34.573c-.014-12.012-9.748-21.746-21.76-21.76zM229.318 401.362l4.335 2.381c10.897 6.093 24.614 3.266 32.213-6.639l23.45-30.148a8.294 8.294 0 0 1 11.093-1.801l80.546 53.692a8.243 8.243 0 0 1 2.5 11.093l-20.198 33.673a32.425 32.425 0 0 1-19.123 14.848c-40.337 11.093-110.933 1.707-218.078-105.446S9.56 195.273 20.627 154.97a32.427 32.427 0 0 1 14.839-19.123l33.673-20.207a8.251 8.251 0 0 1 11.093 2.5l53.717 80.546a8.285 8.285 0 0 1-1.801 11.093l-30.157 23.458c-9.903 7.597-12.731 21.311-6.639 32.205l2.389 4.335c8.533 15.65 19.14 35.123 57.805 73.779 38.666 38.657 58.131 49.272 73.772 57.806zm265.49-102.836a4.659 4.659 0 0 1-4.693 4.608H141.203a215.204 215.204 0 0 1-28.476-41.506l-2.458-4.48a8.14 8.14 0 0 1 2.202-10.428l30.157-23.458c10.43-8.17 12.833-22.982 5.521-34.031l-20.275-30.43V34.573a4.642 4.642 0 0 1 4.693-4.693h357.547a4.642 4.642 0 0 1 4.693 4.693v263.953z"></path>
    <path d="M460.725 52.323l-142.618 108.16a11.512 11.512 0 0 1-13.534 0L162.008 52.323a8.535 8.535 0 0 0-11.959 1.643 8.535 8.535 0 0 0 1.643 11.959l142.583 108.151a28.721 28.721 0 0 0 34.133 0L471.034 65.925a8.53 8.53 0 0 0 1.638-11.963 8.532 8.532 0 0 0-11.947-1.639zm-222.208 122.47l-87.415 93.611a8.535 8.535 0 0 0 12.484 11.64l87.416-93.653a8.535 8.535 0 0 0-12.485-11.598zm146.211 0a8.534 8.534 0 0 0-12.062-.422 8.534 8.534 0 0 0-.422 12.062l87.39 93.611a8.534 8.534 0 0 0 12.062.422 8.534 8.534 0 0 0 .422-12.062l-87.39-93.611z"></path>
  </symbol>
  <symbol xmlns="http://www.w3.org/2000/svg" viewBox="0 0 20 20" id="magnifying-glass">
    <title>magnifying-glass</title>
    <path d="M17.545 15.467l-3.779-3.779a6.15 6.15 0 0 0 .898-3.21c0-3.417-2.961-6.377-6.378-6.377S2.1 4.87 2.1 8.287c0 3.416 2.961 6.377 6.377 6.377a6.15 6.15 0 0 0 3.115-.844l3.799 3.801a.953.953 0 0 0 1.346 0l.943-.943c.371-.371.236-.84-.135-1.211zM4.004 8.287c0-2.366 1.917-4.283 4.282-4.283s4.474 2.107 4.474 4.474c0 2.365-1.918 4.283-4.283 4.283s-4.473-2.109-4.473-4.474z"></path>
  </symbol>
  <symbol viewBox="0 0 512 512" xmlns="http://www.w3.org/2000/svg" id="settings">
    <path d="M262.689 176.286A77.051 77.051 0 0 0 256 176c-44.112 0-80 35.888-80 80s35.888 80 80 80c2.258 0 4.482-.094 6.611-.279C303.798 332.335 336 297.321 336 256s-32.202-76.335-73.311-79.714z"></path>
    <path d="M495.594 216.407C485.014 205.827 470.953 200 456 200h-16.299a190.162 190.162 0 0 0-14.212-34.292l11.534-11.534c21.828-21.828 21.83-57.354.001-79.197-10.573-10.574-24.638-16.397-39.604-16.397-14.959 0-29.02 5.823-39.594 16.396L346.292 86.51A190.306 190.306 0 0 0 312 72.298V56c0-26.523-18.847-49.604-44.851-54.887A56.785 56.785 0 0 0 256 0c-14.953 0-29.014 5.827-39.595 16.407C205.826 26.987 200 41.048 200 56v16.298a190.162 190.162 0 0 0-34.292 14.212l-11.534-11.534c-21.828-21.828-57.354-21.83-79.198 0C64.403 85.55 58.58 99.615 58.58 114.58c0 14.958 5.823 29.02 16.396 39.594l11.534 11.534A190.264 190.264 0 0 0 72.298 200H56c-30.879 0-56 25.122-56 56 0 14.952 5.826 29.013 16.406 39.593S41.047 312 56 312h16.299a190.162 190.162 0 0 0 14.212 34.292l-11.534 11.534c-21.828 21.828-21.83 57.354-.001 79.197 10.573 10.573 24.639 16.396 39.604 16.396 14.959 0 29.02-5.823 39.594-16.396l11.534-11.534A190.234 190.234 0 0 0 200 439.701V456c0 30.878 25.121 56 56 56 3.721 0 7.472-.375 11.149-1.113l.035-.007c10.773-2.188 20.597-7.474 28.41-15.287C306.174 485.013 312 470.952 312 456v-16.298a190.162 190.162 0 0 0 34.292-14.212l11.534 11.534c10.915 10.915 25.251 16.373 39.594 16.371 14.339-.001 28.684-5.458 39.604-16.372 10.572-10.574 16.396-24.639 16.396-39.604 0-14.958-5.823-29.02-16.396-39.594l-11.534-11.534a190.264 190.264 0 0 0 14.212-34.292H456c30.879 0 56-25.122 56-56 0-14.951-5.826-29.012-16.406-39.592zm-157.37 115.645c-19.093 20.633-44.987 33.259-72.913 35.555-2.972.259-6.13.394-9.311.394-61.757 0-112-50.243-112-112s50.243-112 112-112c3.181 0 6.339.135 9.389.4 27.848 2.289 53.742 14.915 72.835 35.548C357.425 200.698 368 227.708 368 256s-10.575 55.302-29.776 76.052z"></path>
  </symbol>
  <symbol viewBox="0 0 512 512" xmlns="http://www.w3.org/2000/svg" id="home">
    <path d="M426 495.983H86c-25.364 0-46-20.635-46-46v-242.02c0-8.836 7.163-16 16-16s16 7.164 16 16v242.02c0 7.72 6.28 14 14 14h340c7.72 0 14-6.28 14-14v-242.02c0-8.836 7.163-16 16-16s16 7.164 16 16v242.02c0 25.364-20.635 46-46 46z"></path>
    <path d="M496 263.958a15.945 15.945 0 0 1-11.313-4.687L285.698 60.284c-16.375-16.376-43.02-16.376-59.396 0L27.314 259.272c-6.248 6.249-16.379 6.249-22.627 0-6.249-6.248-6.249-16.379 0-22.627L203.675 37.656c28.852-28.852 75.799-28.852 104.65 0l198.988 198.988c6.249 6.249 6.249 16.379 0 22.627A15.943 15.943 0 0 1 496 263.958zM320 495.983H192c-8.837 0-16-7.164-16-16v-142c0-27.57 22.43-50 50-50h60c27.57 0 50 22.43 50 50v142c0 8.836-7.163 16-16 16zm-112-32h96v-126c0-9.925-8.075-18-18-18h-60c-9.925 0-18 8.075-18 18z"></path>
  </symbol>
  <symbol xmlns="http://www.w3.org/2000/svg" viewBox="0 0 563.657 563.657" id="tree">
    <path d="M413.493 374.434c-15.116-2.031-29.796-6.752-43.383-13.896-.122 3.941-.522 7.883-1.392 11.824-2.917 13.24-22.885 15.279-33.521 18.205-17.426 4.793-34.855 9.588-52.281 14.377v-68.238c-15.671-1.32-30.865-5.576-44.941-12.256v70.262c-12.897-12.729-25.79-25.463-38.687-38.197.13-11.881.261-23.762.396-35.643-12.693 8.816-26.928 15.354-42.334 19.258-.938.236-1.889.408-2.828.625-.098 8.922-.196 17.846-.298 26.771-.11 10.01 5.174 16.553 12.15 19.65 24.366 24.055 48.731 48.111 73.097 72.172v82.574c0 28.98 44.941 28.98 44.941 0v-90.527c32.636-8.314 66.149-15.969 96.794-29.146 20.492-8.81 29.321-27.583 32.287-47.815z"></path>
    <path d="M494.779 21.612c-17.663-10.519-37.071-15.524-56.235-15.524-27.744 0-54.961 10.489-75.61 29.918-17.621-10.461-36.977-15.431-56.084-15.431-9.955 0-19.841 1.351-29.383 3.974C258.164 8.956 233.79 0 208.237 0c-8.959 0-18.062 1.102-27.148 3.403C132.312 15.765 99.497 58.899 98.04 106.81c-58.887 15.01-94.509 74.889-79.572 133.82 12.648 49.896 57.496 83.13 106.717 83.13 8.963 0 18.062-1.102 27.148-3.402.824-.209 1.604-.498 2.419-.723 17.43-4.842 32.754-13.598 45.219-25.137a110.426 110.426 0 0 0 12.497-13.652 110.528 110.528 0 0 0 25.5 20.628c13.607 8.014 28.915 13.125 44.941 14.729 3.59.359 7.217.561 10.868.561 8.96 0 18.059-1.102 27.141-3.404 6.548-1.66 12.791-3.904 18.728-6.609a109.65 109.65 0 0 0 29.155 29.279 111.675 111.675 0 0 0 5.671 3.631 109.867 109.867 0 0 0 40.221 14.312c5.341.791 10.706 1.221 16.051 1.221 37.553 0 74.15-19.209 94.763-53.816 22.003-36.94 19.869-81.53-1.706-115.504a110.52 110.52 0 0 0 9.258-13.228c31.137-52.278 13.997-119.9-38.28-151.034z"></path>
  </symbol>
  <symbol xmlns="http://www.w3.org/2000/svg"  id="list">
    <path d="M13.25 10l-7.141-7.42c-0.268-0.27-0.268-0.707 0-0.979 0.268-0.27 0.701-0.27 0.969 0l7.83 7.908c0.268 0.271 0.268 0.709 0 0.979l-7.83 7.908c-0.268 0.271-0.701 0.27-0.969 0s-0.268-0.707 0-0.979l7.141-7.417z"></path>
  </symbol>
  
</svg>